<mxfile host="app.diagrams.net" agent="Mozilla/5.0 (Windows NT 10.0; Win64; x64) AppleWebKit/537.36 (KHTML, like Gecko) Chrome/131.0.0.0 Safari/537.36" version="26.0.6">
  <diagram name="Page-1" id="v1ioLhEXZ1aaPB4B9tzm">
    <mxGraphModel dx="1674" dy="1846" grid="1" gridSize="10" guides="1" tooltips="1" connect="1" arrows="1" fold="1" page="1" pageScale="1" pageWidth="850" pageHeight="1100" math="0" shadow="0">
      <root>
        <mxCell id="0" />
        <mxCell id="1" parent="0" />
        <mxCell id="6ymL6NjG9tFJ0w84Eigm-1" value="" style="rounded=1;whiteSpace=wrap;html=1;fillColor=#FFFFFF;rotation=90;" vertex="1" parent="1">
          <mxGeometry x="378.75" y="36.25" width="862.5" height="450" as="geometry" />
        </mxCell>
        <mxCell id="6ymL6NjG9tFJ0w84Eigm-17" style="edgeStyle=orthogonalEdgeStyle;rounded=0;orthogonalLoop=1;jettySize=auto;html=1;exitX=0.5;exitY=1;exitDx=0;exitDy=0;" edge="1" parent="1" source="6ymL6NjG9tFJ0w84Eigm-3" target="6ymL6NjG9tFJ0w84Eigm-16">
          <mxGeometry relative="1" as="geometry" />
        </mxCell>
        <mxCell id="6ymL6NjG9tFJ0w84Eigm-3" value="Initial Dataset D with AI and AO properties" style="rounded=1;whiteSpace=wrap;html=1;" vertex="1" parent="1">
          <mxGeometry x="680" y="-62.25" width="260" height="60" as="geometry" />
        </mxCell>
        <mxCell id="6ymL6NjG9tFJ0w84Eigm-4" style="edgeStyle=orthogonalEdgeStyle;rounded=0;orthogonalLoop=1;jettySize=auto;html=1;exitX=0.5;exitY=1;exitDx=0;exitDy=0;entryX=0.5;entryY=0;entryDx=0;entryDy=0;" edge="1" parent="1" source="6ymL6NjG9tFJ0w84Eigm-5" target="6ymL6NjG9tFJ0w84Eigm-13">
          <mxGeometry relative="1" as="geometry" />
        </mxCell>
        <mxCell id="6ymL6NjG9tFJ0w84Eigm-5" value="" style="rounded=1;whiteSpace=wrap;html=1;" vertex="1" parent="1">
          <mxGeometry x="610" y="230" width="400" height="200" as="geometry" />
        </mxCell>
        <mxCell id="6ymL6NjG9tFJ0w84Eigm-6" value="&lt;b class=&quot;custom-cursor-default-hover&quot;&gt;Pipeline Data Generation&lt;/b&gt;" style="text;html=1;align=center;verticalAlign=middle;whiteSpace=wrap;rounded=0;" vertex="1" parent="1">
          <mxGeometry x="720" y="-150" width="180" height="30" as="geometry" />
        </mxCell>
        <mxCell id="6ymL6NjG9tFJ0w84Eigm-7" value="ADL with AI and AO&amp;nbsp; as target variables" style="rounded=1;whiteSpace=wrap;html=1;" vertex="1" parent="1">
          <mxGeometry x="690" y="600" width="240" height="60" as="geometry" />
        </mxCell>
        <mxCell id="6ymL6NjG9tFJ0w84Eigm-8" style="edgeStyle=orthogonalEdgeStyle;rounded=0;orthogonalLoop=1;jettySize=auto;html=1;exitX=1;exitY=0.25;exitDx=0;exitDy=0;entryX=0;entryY=0.25;entryDx=0;entryDy=0;" edge="1" parent="1" source="6ymL6NjG9tFJ0w84Eigm-9" target="6ymL6NjG9tFJ0w84Eigm-11">
          <mxGeometry relative="1" as="geometry" />
        </mxCell>
        <mxCell id="6ymL6NjG9tFJ0w84Eigm-9" value="" style="rounded=1;whiteSpace=wrap;html=1;" vertex="1" parent="1">
          <mxGeometry x="640" y="270" width="120" height="140" as="geometry" />
        </mxCell>
        <mxCell id="6ymL6NjG9tFJ0w84Eigm-10" style="edgeStyle=orthogonalEdgeStyle;rounded=0;orthogonalLoop=1;jettySize=auto;html=1;exitX=0;exitY=0.75;exitDx=0;exitDy=0;entryX=1;entryY=0.75;entryDx=0;entryDy=0;" edge="1" parent="1" source="6ymL6NjG9tFJ0w84Eigm-11" target="6ymL6NjG9tFJ0w84Eigm-9">
          <mxGeometry relative="1" as="geometry" />
        </mxCell>
        <mxCell id="6ymL6NjG9tFJ0w84Eigm-11" value="Discriminor" style="rounded=1;whiteSpace=wrap;html=1;" vertex="1" parent="1">
          <mxGeometry x="840" y="270" width="120" height="140" as="geometry" />
        </mxCell>
        <mxCell id="6ymL6NjG9tFJ0w84Eigm-12" style="edgeStyle=orthogonalEdgeStyle;rounded=0;orthogonalLoop=1;jettySize=auto;html=1;exitX=0.5;exitY=1;exitDx=0;exitDy=0;entryX=0.5;entryY=0;entryDx=0;entryDy=0;" edge="1" parent="1" source="6ymL6NjG9tFJ0w84Eigm-13" target="6ymL6NjG9tFJ0w84Eigm-7">
          <mxGeometry relative="1" as="geometry" />
        </mxCell>
        <mxCell id="6ymL6NjG9tFJ0w84Eigm-13" value="&amp;nbsp;Filter" style="rounded=1;whiteSpace=wrap;html=1;" vertex="1" parent="1">
          <mxGeometry x="690" y="490" width="240" height="60" as="geometry" />
        </mxCell>
        <mxCell id="6ymL6NjG9tFJ0w84Eigm-14" value="LLM GPT-2" style="rounded=1;whiteSpace=wrap;html=1;" vertex="1" parent="1">
          <mxGeometry x="645" y="321.25" width="110" height="80" as="geometry" />
        </mxCell>
        <mxCell id="6ymL6NjG9tFJ0w84Eigm-15" value="Generator" style="text;html=1;align=center;verticalAlign=middle;whiteSpace=wrap;rounded=0;" vertex="1" parent="1">
          <mxGeometry x="670" y="280" width="60" height="30" as="geometry" />
        </mxCell>
        <mxCell id="6ymL6NjG9tFJ0w84Eigm-16" value="Data Augmentation Layer" style="rounded=1;whiteSpace=wrap;html=1;" vertex="1" parent="1">
          <mxGeometry x="680" y="84" width="260" height="60" as="geometry" />
        </mxCell>
        <mxCell id="6ymL6NjG9tFJ0w84Eigm-19" style="edgeStyle=orthogonalEdgeStyle;rounded=0;orthogonalLoop=1;jettySize=auto;html=1;exitX=0.5;exitY=1;exitDx=0;exitDy=0;" edge="1" parent="1">
          <mxGeometry relative="1" as="geometry">
            <mxPoint x="809.5" y="144" as="sourcePoint" />
            <mxPoint x="809.5" y="230" as="targetPoint" />
          </mxGeometry>
        </mxCell>
        <mxCell id="6ymL6NjG9tFJ0w84Eigm-20" style="edgeStyle=orthogonalEdgeStyle;rounded=0;orthogonalLoop=1;jettySize=auto;html=1;exitX=0.5;exitY=1;exitDx=0;exitDy=0;entryX=0.997;entryY=0.513;entryDx=0;entryDy=0;entryPerimeter=0;" edge="1" parent="1" source="6ymL6NjG9tFJ0w84Eigm-7" target="6ymL6NjG9tFJ0w84Eigm-1">
          <mxGeometry relative="1" as="geometry" />
        </mxCell>
        <mxCell id="6ymL6NjG9tFJ0w84Eigm-21" value="Enhanced Dataset D&#39; with AI and AO properties&lt;div&gt;(D&#39;&amp;gt;&amp;gt;D)&lt;/div&gt;" style="rounded=1;whiteSpace=wrap;html=1;" vertex="1" parent="1">
          <mxGeometry x="580" y="690" width="450" height="60" as="geometry" />
        </mxCell>
      </root>
    </mxGraphModel>
  </diagram>
</mxfile>
